<?xml version="1.0" standalone="no"?><!DOCTYPE svg PUBLIC "-//W3C//DTD SVG 1.1//EN" "http://www.w3.org/Graphics/SVG/1.1/DTD/svg11.dtd"><svg t="1763549310875" class="icon" viewBox="0 0 1024 1024" version="1.1" xmlns="http://www.w3.org/2000/svg" p-id="51146" xmlns:xlink="http://www.w3.org/1999/xlink" width="200" height="200"><path d="M643.7888 573.1328v-336.896c0-33.8944-27.5456-61.44-61.44-61.44H180.5312c-33.8944 0-61.44 27.5456-61.44 61.44v336.9984c0 33.8944 27.5456 61.44 61.44 61.44H230.4v54.8864c0 11.5712 6.4512 22.1184 16.7936 27.3408 4.4032 2.2528 9.216 3.3792 13.9264 3.3792 6.3488 0 12.6976-1.9456 18.0224-5.8368l109.9776-79.872h193.2288c33.8944 0 61.44-27.5456 61.44-61.44z m-257.9456 20.48c-6.5536 0-12.8 2.048-18.0224 5.8368L271.36 669.4912v-45.056c0-16.896-13.824-30.72-30.72-30.72h-60.1088c-11.264 0-20.48-9.216-20.48-20.48V236.2368c0-11.264 9.216-20.48 20.48-20.48h401.8176c11.264 0 20.48 9.216 20.48 20.48v336.9984c0 11.264-9.216 20.48-20.48 20.48H385.8432z" p-id="51147" fill="#ffffff"></path><path d="M843.4688 308.9408H708.7104c-11.264 0-20.48 9.216-20.48 20.48s9.216 20.48 20.48 20.48h134.7584c11.264 0 20.48 9.216 20.48 20.48v338.1248c0 11.264-9.216 20.48-20.48 20.48h-80.4864c-16.896 0-30.72 13.824-30.72 30.72v38.912l-96.0512-68.1984c-5.2224-3.6864-11.3664-5.632-17.8176-5.632h-95.3344c-11.264 0-20.48-9.216-20.48-20.48v-19.456c0-11.264-9.216-20.48-20.48-20.48s-20.48 9.216-20.48 20.48v19.456c0 33.8944 27.5456 61.44 61.44 61.44h92.0576l109.568 77.824c5.3248 3.7888 11.5712 5.7344 17.8176 5.7344 4.8128 0 9.6256-1.1264 14.1312-3.4816 10.24-5.3248 16.5888-15.7696 16.5888-27.3408V770.048h70.2464c33.8944 0 61.44-27.5456 61.44-61.44V370.3808c0-33.8944-27.5456-61.44-61.44-61.44z" p-id="51148" fill="#ffffff"></path></svg>